{"title":"Harry Potter And The Deathly Hallows 2010 CAM V2 XviD~RENCODED~S","uid":5984951,"size":555498298,"categoryP":"video","categoryS":"movies","magnet":"?xt=urn:btih:84a8e1e10be8fc546d339696761b20e1f12cc718&amp;dn=Harry+Potter+And+The+Deathly+Hallows+2010+CAM+V2+XviD%7ERENCODED%7ES&amp;tr=udp%3A%2F%2Ftracker.openbittorrent.com%3A80&amp;tr=udp%3A%2F%2Fopen.demonii.com%3A1337&amp;tr=udp%3A%2F%2Ftracker.coppersurfer.tk%3A6969&amp;tr=udp%3A%2F%2Fexodus.desync.com%3A6969","seeders":0,"leechers":0,"uploader":"hshahaz","files":18,"time":1290706600,"description":"\n[img]http://www.onlinemovieshut.com/wp-content/uploads/2010/11/watch-harry-potter-and-the-deathly-hallows-part-1-online.jpg[/img]\n\n\n[b]Screens:[/b]\n\n[b]INFO:[/b]\ncode]General\n\nFormat                           : AVI\nFormat/Info                      : Audio Video Interleave\nFile size                        : 519 MiB\nDuration                         : 2h 11mn\nOverall bit rate                 : 552 Kbps\nWriting application              : VirtualDubMod 1.5.10.3 | www.virtualdub-fr.org || (build 2550/release)\nWriting library                  : VirtualDubMod build 2550/release\n\nVideo\nID                               : 0\nFormat                           : MPEG-4 Visual\nFormat profile                   : Advanced Simple@L5\nFormat settings, BVOP            : Yes\nFormat settings, QPel            : No\nFormat settings, GMC             : No warppoints\nFormat settings, Matrix          : Default (H.263)\nCodec ID                         : XVID\nCodec ID/Hint                    : XviD\nDuration                         : 2h 11mn\nBit rate                         : 414 Kbps\nWidth                            : 640 pixels\nHeight                           : 240 pixels\nDisplay aspect ratio             : 2.667\nFrame rate                       : 25.000 fps\nColor space                      : YUV\nChroma subsampling               : 4:2:0\nBit depth                        : 8 bits\nScan type                        : Progressive\nBits/(Pixel*Frame)               : 0.108\nStream size                      : 390 MiB (75%)\nWriting library                  : XviD 1.2.1 (UTC 2008-12-04)\n\nAudio\nID                               : 1\nFormat                           : MPEG Audio\nFormat version                   : Version 1\nFormat profile                   : Layer 3\nCodec ID                         : 55\nCodec ID/Hint                    : MP3\nDuration                         : 2h 11mn\nBit rate mode                    : Constant\nBit rate                         : 128 Kbps\nChannel(s)                       : 2 channels\nSampling rate                    : 44.1 KHz\nVideo delay                      : 25ms\nStream size                      : 121 MiB (23%)\nAlignment                        : Split accross interleaves\nInterleave, duration             : 40 ms (1.00 video frame)\nInterleave, preload duration     : 500 ms\nRipper                           : Striker[TheDesiAdda.Com]\n[/code]\n\n[b]\nGIVE CREDITS TO STRIKER AND TEAM TDA WHEN U SHARE.....[/b]","torrent":{"xt":"urn:btih:84a8e1e10be8fc546d339696761b20e1f12cc718","amp;dn":"Harry+Potter+And+The+Deathly+Hallows+2010+CAM+V2+XviD%7ERENCODED%7ES","amp;tr":["udp%3A%2F%2Ftracker.openbittorrent.com%3A80","udp%3A%2F%2Fopen.demonii.com%3A1337","udp%3A%2F%2Ftracker.coppersurfer.tk%3A6969","udp%3A%2F%2Fexodus.desync.com%3A6969"],"infoHash":"84a8e1e10be8fc546d339696761b20e1f12cc718","infoHashBuffer":{"type":"Buffer","data":[132,168,225,225,11,232,252,84,109,51,150,150,118,27,32,225,241,44,199,24]},"announce":[],"urlList":[]}}